<svg width="13px" height="13px" viewBox="0 0 13 13" version="1.1" xmlns="http://www.w3.org/2000/svg" xmlns:xlink="http://www.w3.org/1999/xlink">
    <g id="Playing-View" stroke="none" stroke-width="1" fill="none" fill-rule="evenodd" opacity="0.900000036">
        <g id="Playing-View-/-@p1---854" transform="translate(-798.000000, -242.000000)" fill="#FFFFFF">
            <g id="字幕列表" transform="translate(656.000000, 228.000000)">
                <g id="刷新" opacity="0.796386719" transform="translate(142.000000, 13.000000)">
                    <path d="M11.8969853,9.98274234 L11.8968153,9.984 L9.62705218,7.51047821 L11.2690056,6.97394164 C11.0395888,4.43873572 8.85399127,2.45059357 6.1916712,2.45059357 C5.0879049,2.45059357 4.06607925,2.79232204 3.23162161,3.3730866 L2.496,2.40209631 C3.53128782,1.6757736 4.80150293,1.248 6.17415497,1.248 C9.65677701,1.248 12.48,4.00163105 12.48,7.3984071 C12.48,8.32176673 12.2713814,9.19760195 11.8976085,9.98351972 Z" id="Combined-Shape"></path>
                    <path d="M9.40097351,13.7267277 L9.40081528,13.728 L7.09081651,11.1655535 L8.76414644,10.629131 C8.49235054,8.13645842 6.32682388,6.19459357 3.6956712,6.19459357 C2.5919049,6.19459357 1.57007925,6.53632204 0.735621606,7.1170866 L-2.71461187e-11,6.14609631 C1.03528782,5.4197736 2.30550293,4.992 3.67815497,4.992 C7.16077701,4.992 9.984,7.74563105 9.984,11.1424071 C9.984,12.0657667 9.77538135,12.9416019 9.40160847,13.7275197 Z" id="Combined-Shape" transform="translate(4.992000, 9.360000) scale(-1, -1) translate(-4.992000, -9.360000) "></path>
                </g>
            </g>
        </g>
    </g>
</svg>
